<svg width="1920" height="1080" viewBox="0 0 1920 1080" fill="none" xmlns="http://www.w3.org/2000/svg">
<rect width="1920" height="1080" fill="#FA533C"/>
<path d="M683.021 520.946H719.713V578.8H747.536V435.269H719.713V493.123H683.021V435.269H655.198V578.8H683.021V520.946Z" fill="#F4F2EB"/>
<path d="M703.332 629.664C676.796 629.664 655.198 651.262 655.198 677.798C655.198 704.334 676.796 725.931 703.332 725.931C729.868 725.931 751.466 704.334 751.466 677.798C751.466 651.262 729.868 629.664 703.332 629.664ZM703.332 698.108C692.133 698.108 683.021 688.996 683.021 677.798C683.021 666.599 692.133 657.487 703.332 657.487C714.531 657.487 723.643 666.599 723.643 677.798C723.643 688.996 714.531 698.108 703.332 698.108Z" fill="#F4F2EB"/>
<path d="M867.224 436.052H895.047C895.047 391.361 858.686 355 813.995 355V382.823C843.348 382.823 867.224 406.698 867.224 436.052Z" fill="#F4F2EB"/>
<path d="M941.702 457.006H807.439V484.829H941.702V457.006Z" fill="#F4F2EB"/>
<path d="M843.264 614.257H891.641V518.025H813.998V545.848H863.818V586.434H813.598V600.346C813.598 645.036 849.959 681.397 894.649 681.397V653.575C870.113 653.575 849.402 636.881 843.281 614.257H843.264Z" fill="#F4F2EB"/>
<path d="M1129.32 520.946H1166.01V578.8H1193.83V435.269H1166.01V493.123H1129.32V435.269H1101.5V578.8H1129.32V520.946Z" fill="#F4F2EB"/>
<path d="M1149.65 629.664C1123.11 629.664 1101.51 651.262 1101.51 677.798C1101.51 704.334 1123.11 725.931 1149.65 725.931C1176.18 725.931 1197.78 704.334 1197.78 677.798C1197.78 651.262 1176.18 629.664 1149.65 629.664ZM1149.65 698.108C1138.45 698.108 1129.33 688.996 1129.33 677.798C1129.33 666.599 1138.45 657.487 1149.65 657.487C1160.84 657.487 1169.96 666.599 1169.96 677.798C1169.96 688.996 1160.84 698.108 1149.65 698.108Z" fill="#F4F2EB"/>
<path d="M1313.52 436.052H1341.34C1341.34 391.361 1304.98 355 1260.29 355V382.823C1289.65 382.823 1313.52 406.698 1313.52 436.052Z" fill="#F4F2EB"/>
<path d="M1388 457.006H1253.74V484.829H1388V457.006Z" fill="#F4F2EB"/>
<path d="M1289.56 614.257H1337.94V518.025H1260.29V545.848H1310.11V586.434H1259.89V600.346C1259.89 645.036 1296.26 681.397 1340.95 681.397V653.575C1316.41 653.575 1295.7 636.881 1289.58 614.257H1289.56Z" fill="#F4F2EB"/>
<path d="M558.635 502.393V484.499H607.794V457.337H531.473V502.393C531.473 541.397 566.303 573.132 609.133 573.132V545.97C581.293 545.97 558.635 526.425 558.635 502.393Z" fill="#F4F2EB"/>
<path d="M1005.49 502.393V484.499H1054.65V457.337H978.325V502.393C978.325 541.397 1013.16 573.132 1055.99 573.132V545.97C1028.15 545.97 1005.49 526.425 1005.49 502.393Z" fill="#F4F2EB"/>
</svg>
